<svg width="61" height="60" viewBox="0 0 61 60" fill="none" xmlns="http://www.w3.org/2000/svg">
<ellipse cx="30.5" cy="30" rx="30" ry="30" fill="#73CCD7"/>
<path d="M36.2864 10.6764C36.4448 10.5958 36.6221 10.5595 36.7994 10.5716C36.9768 10.5837 37.1475 10.6436 37.2936 10.745C37.4396 10.8463 37.5554 10.9854 37.6287 11.1473C37.702 11.3093 37.7301 11.488 37.7099 11.6646C37.6897 11.8413 37.622 12.0091 37.5141 12.1503C37.4061 12.2915 37.2619 12.4009 37.0968 12.4667C36.9317 12.5325 36.7518 12.5523 36.5763 12.524C36.4008 12.4958 36.2362 12.4205 36.1001 12.3062C35.9757 12.2017 35.8791 12.068 35.8189 11.9171C35.7588 11.7661 35.737 11.6027 35.7554 11.4412C35.7739 11.2798 35.832 11.1255 35.9247 10.992C36.0173 10.8586 36.1416 10.7501 36.2864 10.6764Z" fill="white"/>
<path d="M37.3483 13.8593C37.5366 13.8337 37.7283 13.8568 37.9051 13.9264C38.0819 13.9959 38.2379 14.1097 38.3582 14.2567C38.4786 14.4037 38.5592 14.5792 38.5924 14.7662C38.6257 14.9533 38.6104 15.1458 38.548 15.3253C38.4857 15.5048 38.3784 15.6653 38.2364 15.7915C38.0944 15.9177 37.9224 16.0054 37.7368 16.0462C37.5512 16.087 37.3583 16.0795 37.1764 16.0246C36.9946 15.9696 36.8298 15.8689 36.6979 15.7321C36.5554 15.5843 36.4566 15.3999 36.4125 15.1993C36.3684 14.9988 36.3808 14.79 36.4481 14.596C36.5155 14.402 36.6353 14.2305 36.7942 14.1005C36.9531 13.9704 37.1449 13.887 37.3483 13.8593Z" fill="white"/>
<path d="M37.3366 16.9343C37.56 16.9041 37.7874 16.9336 37.9958 17.0197C38.2042 17.1057 38.3861 17.2453 38.5231 17.4244C38.6601 17.6034 38.7473 17.8155 38.776 18.0391C38.8046 18.2627 38.7736 18.4899 38.6861 18.6977C38.5986 18.9055 38.4578 19.0864 38.2778 19.2222C38.0978 19.358 37.8852 19.4438 37.6614 19.4709C37.4376 19.498 37.2106 19.4655 37.0034 19.3766C36.7962 19.2877 36.6162 19.1456 36.4817 18.9647C36.3489 18.7862 36.265 18.5761 36.2382 18.3552C36.2115 18.1344 36.2428 17.9103 36.3292 17.7053C36.4155 17.5002 36.5538 17.3213 36.7305 17.186C36.9072 17.0508 37.1161 16.9641 37.3366 16.9343Z" fill="white"/>
<path d="M36.4989 19.8735C36.7423 19.8061 36.9992 19.804 37.2436 19.8676C37.4881 19.9312 37.7115 20.0581 37.8912 20.2356C38.0709 20.413 38.2007 20.6348 38.2673 20.8784C38.334 21.122 38.3352 21.3789 38.2709 21.6231C38.2066 21.8674 38.079 22.0903 37.901 22.2695C37.723 22.4487 37.5009 22.5778 37.2571 22.6437C37.0132 22.7097 36.7563 22.7101 36.5123 22.6451C36.2682 22.58 36.0457 22.4517 35.867 22.2732C35.6923 22.0944 35.5668 21.8734 35.503 21.6317C35.4391 21.39 35.439 21.1359 35.5027 20.8942C35.5663 20.6524 35.6916 20.4313 35.8662 20.2524C36.0408 20.0736 36.2588 19.943 36.4989 19.8735Z" fill="white"/>
<path d="M35.3474 22.6351C35.6237 22.5901 35.9069 22.6187 36.1687 22.718C36.4304 22.8173 36.6614 22.9839 36.8383 23.2008C37.0152 23.4177 37.1318 23.6774 37.1765 23.9538C37.2211 24.2302 37.1922 24.5134 37.0925 24.775C36.9929 25.0366 36.8261 25.2673 36.6089 25.444C36.3918 25.6206 36.1319 25.737 35.8555 25.7812C35.5791 25.8255 35.2959 25.7962 35.0344 25.6962C34.7729 25.5963 34.5424 25.4292 34.366 25.2118C34.1901 24.9949 34.0742 24.7357 34.03 24.4599C33.9859 24.1842 34.0149 23.9017 34.1143 23.6407C34.2137 23.3798 34.3799 23.1495 34.5963 22.973C34.8128 22.7965 35.0718 22.68 35.3474 22.6351Z" fill="white"/>
<path d="M32.9808 25.2486C33.281 25.1789 33.5943 25.1896 33.889 25.2798C34.1837 25.3699 34.4494 25.5363 34.6592 25.762C34.8691 25.9877 35.0156 26.2648 35.084 26.5653C35.1524 26.8658 35.1403 27.179 35.0489 27.4733C34.9575 27.7677 34.79 28.0326 34.5634 28.2415C34.3368 28.4503 34.059 28.5957 33.7583 28.6628C33.4575 28.7299 33.1443 28.7165 32.8504 28.6238C32.5565 28.5311 32.2922 28.3625 32.0843 28.135C31.8782 27.9094 31.7347 27.6337 31.6681 27.3354C31.6015 27.0371 31.6142 26.7266 31.7049 26.4347C31.7955 26.1428 31.961 25.8798 32.1849 25.6717C32.4087 25.4636 32.6831 25.3177 32.9808 25.2486Z" fill="white"/>
<path d="M29.938 27.6374C30.272 27.5761 30.6164 27.6051 30.9355 27.7214C31.2546 27.8377 31.5369 28.037 31.7532 28.2988C31.9695 28.5606 32.1121 28.8755 32.1661 29.2108C32.2201 29.5461 32.1837 29.8897 32.0605 30.2062C31.9374 30.5227 31.732 30.8006 31.4656 31.0113C31.1991 31.2219 30.8813 31.3576 30.5449 31.4043C30.2085 31.4511 29.8658 31.4072 29.552 31.2772C29.2382 31.1473 28.9648 30.9359 28.76 30.665C28.5792 30.4009 28.4655 30.0966 28.4289 29.7786C28.3923 29.4607 28.4338 29.1386 28.5498 28.8403C28.6659 28.542 28.853 28.2765 29.0949 28.0669C29.3368 27.8573 29.6262 27.7098 29.938 27.6374Z" fill="white"/>
<path d="M26.9362 30.3469C27.2355 30.3064 27.5402 30.3444 27.8204 30.4573C28.1006 30.5702 28.3466 30.754 28.5342 30.9908C28.7219 31.2275 28.8447 31.509 28.8906 31.8075C28.9365 32.1061 28.904 32.4114 28.7961 32.6936C28.6883 32.9758 28.5089 33.225 28.2756 33.4169C28.0423 33.6087 27.7631 33.7366 27.4654 33.7879C27.1677 33.8392 26.8618 33.8121 26.5778 33.7094C26.2937 33.6067 26.0413 33.4318 25.8452 33.202C25.6456 32.963 25.5132 32.675 25.4619 32.3679C25.4106 32.0607 25.4422 31.7454 25.5534 31.4545C25.6645 31.1636 25.8513 30.9076 26.0943 30.7129C26.3374 30.5182 26.628 30.3919 26.9362 30.3469Z" fill="white"/>
<path d="M24.4769 33.3026C24.742 33.2229 25.0232 33.2135 25.293 33.2756C25.5628 33.3376 25.8118 33.4688 26.0154 33.6563C26.219 33.8438 26.3703 34.0811 26.4543 34.3449C26.5383 34.6087 26.5521 34.8898 26.4945 35.1605C26.4368 35.4312 26.3096 35.6823 26.1254 35.8889C25.9412 36.0955 25.7063 36.2506 25.4439 36.3388C25.1816 36.427 24.9007 36.4454 24.6291 36.3921C24.3575 36.3388 24.1044 36.2156 23.8949 36.0348C23.6847 35.8452 23.528 35.6036 23.4407 35.3344C23.3534 35.0651 23.3385 34.7776 23.3975 34.5007C23.4565 34.2239 23.5873 33.9674 23.7767 33.7571C23.9662 33.5468 24.2077 33.3901 24.4769 33.3026Z" fill="white"/>
<path d="M23.2343 36.3968C23.481 36.3185 23.7442 36.3083 23.9962 36.3673C24.2482 36.4263 24.4795 36.5523 24.6658 36.732C24.8521 36.9116 24.9863 37.1383 25.0544 37.388C25.1224 37.6377 25.1217 37.9011 25.0524 38.1504C24.983 38.3997 24.8476 38.6257 24.6604 38.8044C24.4732 38.9831 24.2412 39.1078 23.9889 39.1655C23.7366 39.2232 23.4734 39.2116 23.2272 39.132C22.9809 39.0525 22.7608 38.9078 22.59 38.7134C22.4349 38.5331 22.3266 38.3174 22.2748 38.0853C22.223 37.8533 22.2293 37.612 22.293 37.3829C22.3567 37.1538 22.476 36.944 22.6402 36.7719C22.8044 36.5999 23.0084 36.4711 23.2343 36.3968Z" fill="white"/>
<path d="M22.5777 39.6663C22.7926 39.5838 23.0258 39.5609 23.2527 39.5999C23.4795 39.6389 23.6916 39.7385 23.8666 39.888C24.0416 40.0375 24.173 40.2315 24.2469 40.4495C24.3208 40.6675 24.3345 40.9014 24.2865 41.1265C24.2386 41.3516 24.1307 41.5597 23.9744 41.7286C23.8181 41.8975 23.619 42.0211 23.3983 42.0864C23.1775 42.1516 22.9433 42.156 22.7202 42.0992C22.4972 42.0424 22.2936 41.9264 22.131 41.7635C21.9828 41.6116 21.8745 41.4256 21.8156 41.2218C21.7567 41.018 21.7489 40.8028 21.7931 40.5954C21.8373 40.3879 21.9321 40.1945 22.069 40.0325C22.2058 39.8704 22.3806 39.7446 22.5777 39.6663Z" fill="white"/>
<path d="M22.6363 43.0276C22.8135 42.9584 23.0056 42.9358 23.1941 42.9621C23.3826 42.9883 23.5612 43.0625 23.7128 43.1776C23.8644 43.2927 23.9839 43.4448 24.0599 43.6193C24.1358 43.7938 24.1657 43.9849 24.1466 44.1742C24.1276 44.3636 24.0602 44.5449 23.951 44.7008C23.8418 44.8566 23.6943 44.9818 23.5229 45.0644C23.3514 45.1469 23.1616 45.1841 22.9716 45.1722C22.7817 45.1604 22.5979 45.1 22.438 44.9968C22.2691 44.8837 22.1341 44.7268 22.0475 44.5429C21.9609 44.359 21.9259 44.155 21.9462 43.9527C21.9666 43.7504 22.0415 43.5575 22.1631 43.3946C22.2846 43.2316 22.4482 43.1048 22.6363 43.0276Z" fill="white"/>
<path d="M23.4847 46.5976C23.6606 46.5157 23.8568 46.4877 24.0486 46.5171C24.2404 46.5465 24.4192 46.6319 24.5626 46.7627C24.7059 46.8935 24.8074 47.0637 24.8542 47.252C24.901 47.4403 24.8911 47.6383 24.8257 47.8209C24.7603 48.0036 24.6423 48.1629 24.4866 48.2786C24.3309 48.3944 24.1444 48.4616 23.9507 48.4716C23.7569 48.4817 23.5645 48.4342 23.3976 48.3352C23.2308 48.2362 23.0969 48.09 23.0129 47.9151C22.9566 47.7977 22.9241 47.6704 22.9174 47.5404C22.9106 47.4104 22.9297 47.2803 22.9736 47.1578C23.0175 47.0352 23.0853 46.9226 23.173 46.8264C23.2607 46.7303 23.3667 46.6525 23.4847 46.5976Z" fill="white"/>
<path d="M31.5639 8.76544C31.8548 8.7276 32.1506 8.76307 32.4244 8.86863C32.6982 8.97419 32.9412 9.1465 33.1314 9.36988C33.3217 9.59326 33.4531 9.86065 33.5137 10.1477C33.5743 10.4348 33.5622 10.7325 33.4785 11.0137C33.3866 11.3155 33.2149 11.5868 32.9816 11.799C32.7483 12.0113 32.4619 12.1565 32.1528 12.2195C31.8438 12.2824 31.5234 12.2607 31.2257 12.1566C30.9279 12.0525 30.6638 11.8699 30.4613 11.628C30.2657 11.3863 30.1373 11.0973 30.0889 10.7901C30.0405 10.4829 30.0739 10.1684 30.1857 9.87823C30.2974 9.58805 30.4837 9.33243 30.7256 9.13708C30.9676 8.94174 31.2567 8.81356 31.5639 8.76544Z" fill="white"/>
<path d="M28.9627 11.7713C29.2249 11.6664 29.5103 11.6331 29.7896 11.6748C30.0689 11.7164 30.3321 11.8316 30.5523 12.0084C30.7725 12.1852 30.9418 12.4174 31.0427 12.6811C31.1437 12.9449 31.1727 13.2307 31.1269 13.5094C31.0811 13.788 30.962 14.0495 30.7819 14.267C30.6018 14.4845 30.3671 14.6503 30.1019 14.7473C29.8367 14.8443 29.5504 14.8691 29.2725 14.8191C28.9946 14.7691 28.7349 14.6461 28.5201 14.4628C28.314 14.2833 28.1573 14.0541 28.0647 13.797C27.9721 13.5398 27.9468 13.2633 27.9912 12.9937C28.0355 12.724 28.148 12.4702 28.3181 12.2562C28.4881 12.0423 28.71 11.8754 28.9627 11.7713Z" fill="white"/>
<path d="M27.7061 14.8828C27.939 14.7854 28.1937 14.7516 28.444 14.7848C28.6943 14.8181 28.9313 14.9172 29.1308 15.0721C29.3303 15.2269 29.485 15.4319 29.5793 15.6662C29.6736 15.9005 29.704 16.1555 29.6674 16.4054C29.6308 16.6552 29.5285 16.8909 29.371 17.0883C29.2135 17.2856 29.0064 17.4377 28.7709 17.5288C28.5354 17.6199 28.2799 17.6469 28.0306 17.6069C27.7812 17.567 27.547 17.4615 27.3517 17.3014C27.1666 17.1425 27.0246 16.9394 26.9391 16.7108C26.8536 16.4823 26.8273 16.2359 26.8627 15.9945C26.898 15.7531 26.9939 15.5245 27.1414 15.3302C27.2888 15.1358 27.4831 14.9819 27.7061 14.8828Z" fill="white"/>
<path d="M27.333 18.0516C27.5537 17.9997 27.7842 18.0078 28.0007 18.0751C28.2171 18.1425 28.4116 18.2666 28.5638 18.4345C28.716 18.6025 28.8205 18.8081 28.8664 19.0301C28.9122 19.2521 28.8977 19.4823 28.8245 19.6969C28.7512 19.9114 28.6218 20.1023 28.4497 20.2499C28.2777 20.3975 28.0692 20.4962 27.846 20.5359C27.6229 20.5757 27.3931 20.5549 27.1807 20.4757C26.9683 20.3966 26.781 20.262 26.6382 20.0859C26.5055 19.9182 26.417 19.7198 26.3808 19.509C26.3446 19.2982 26.3619 19.0817 26.431 18.8793C26.5002 18.6769 26.6189 18.4951 26.7765 18.3505C26.9341 18.2059 27.1255 18.1031 27.333 18.0516Z" fill="white"/>
<path d="M27.2342 21.4399C27.4146 21.377 27.6082 21.3617 27.7962 21.3954C27.9843 21.4292 28.1604 21.5108 28.3077 21.6324C28.455 21.754 28.5685 21.9116 28.6372 22.0898C28.7059 22.2681 28.7275 22.461 28.6999 22.6501C28.6723 22.8391 28.5964 23.0178 28.4796 23.169C28.3628 23.3202 28.2091 23.4387 28.0331 23.5131C27.8572 23.5875 27.665 23.6154 27.4752 23.5939C27.2854 23.5725 27.1043 23.5024 26.9494 23.3906C26.7906 23.268 26.6673 23.1053 26.5922 22.9192C26.517 22.7332 26.4927 22.5305 26.5216 22.332C26.5506 22.1335 26.6319 21.9462 26.7571 21.7895C26.8824 21.6327 27.047 21.5121 27.2342 21.4399Z" fill="white"/>
<path d="M27.908 24.9826C28.0731 24.9215 28.2516 24.9059 28.4248 24.9373C28.598 24.9687 28.7596 25.0461 28.8928 25.1612C29.0259 25.2764 29.1257 25.4252 29.1817 25.5921C29.2378 25.759 29.248 25.9379 29.2113 26.1101C29.1746 26.2822 29.0924 26.4414 28.9732 26.571C28.854 26.7006 28.7022 26.7958 28.5337 26.8467C28.3652 26.8976 28.1861 26.9024 28.0151 26.8604C27.8441 26.8185 27.6875 26.7315 27.5616 26.6084C27.443 26.4925 27.3557 26.3484 27.3077 26.1896C27.2597 26.0308 27.2527 25.8624 27.2872 25.7002C27.3218 25.5379 27.3968 25.3871 27.5054 25.2616C27.6139 25.1361 27.7524 25.0402 27.908 24.9826Z" fill="white"/>
<path d="M31.9155 32.1821C32.0958 32.1618 32.2782 32.1917 32.4424 32.2686C32.6067 32.3455 32.7466 32.4663 32.8465 32.6176C32.9465 32.769 33.0026 32.9451 33.0087 33.1264C33.0148 33.3077 32.9706 33.4871 32.8811 33.6449C32.7981 33.7913 32.6789 33.9139 32.5349 34.001C32.3909 34.0882 32.227 34.1369 32.0588 34.1426C31.8906 34.1482 31.7237 34.1106 31.5742 34.0334C31.4247 33.9562 31.2975 33.8418 31.2047 33.7014C31.112 33.5609 31.0569 33.399 31.0446 33.2312C31.0324 33.0633 31.0634 32.8951 31.1347 32.7427C31.206 32.5903 31.3153 32.4587 31.452 32.3605C31.5887 32.2624 31.7483 32.2009 31.9155 32.1821Z" fill="white"/>
<path d="M32.5943 35.4644C32.7785 35.4125 32.9731 35.4091 33.159 35.4545C33.345 35.4998 33.516 35.5925 33.6557 35.7234C33.7953 35.8543 33.8988 36.019 33.9561 36.2017C34.0134 36.3843 34.0225 36.5786 33.9826 36.7659C33.9428 36.9531 33.8552 37.1268 33.7285 37.2702C33.6017 37.4137 33.4401 37.522 33.2592 37.5846C33.0783 37.6472 32.8843 37.6621 32.696 37.6277C32.5077 37.5933 32.3315 37.5109 32.1844 37.3885C32.0319 37.2572 31.9176 37.0874 31.8533 36.8968C31.7891 36.7061 31.7773 36.5017 31.8192 36.305C31.8611 36.1082 31.9552 35.9264 32.0916 35.7785C32.2279 35.6306 32.4016 35.5221 32.5943 35.4644Z" fill="white"/>
<path d="M32.7266 38.4794C32.9409 38.4485 33.1596 38.473 33.3618 38.5505C33.564 38.628 33.743 38.756 33.8818 38.9222C34.0206 39.0885 34.1145 39.2875 34.1546 39.5003C34.1947 39.7131 34.1797 39.9326 34.1109 40.138C34.0422 40.3433 33.9221 40.5277 33.7619 40.6735C33.6018 40.8193 33.4071 40.9217 33.1962 40.9709C32.9853 41.0202 32.7653 41.0146 32.5572 40.9548C32.349 40.895 32.1597 40.7829 32.0071 40.6292C31.8484 40.4596 31.7385 40.2502 31.689 40.0232C31.6396 39.7963 31.6524 39.5601 31.7261 39.3399C31.7998 39.1196 31.9317 38.9233 32.1078 38.7719C32.284 38.6204 32.4977 38.5194 32.7266 38.4794Z" fill="white"/>
<path d="M32.082 41.4095C32.3321 41.3739 32.5871 41.4053 32.821 41.5005C33.0549 41.5957 33.2593 41.7514 33.4133 41.9515C33.5674 42.1516 33.6655 42.389 33.6977 42.6395C33.73 42.89 33.6951 43.1445 33.5967 43.3771C33.4983 43.6097 33.3399 43.812 33.1377 43.9633C32.9356 44.1146 32.6968 44.2096 32.4459 44.2384C32.195 44.2672 31.941 44.2289 31.7098 44.1273C31.4785 44.0258 31.2784 43.8647 31.1298 43.6605C30.9908 43.4601 30.9046 43.2278 30.8795 42.9851C30.8543 42.7425 30.891 42.4974 30.986 42.2727C31.0811 42.0481 31.2314 41.8511 31.423 41.7002C31.6147 41.5492 31.8414 41.4492 32.082 41.4095Z" fill="white"/>
<path d="M30.7333 44.1996C31.0068 44.1528 31.2877 44.1783 31.5483 44.2734C31.8089 44.3685 32.0401 44.5301 32.2191 44.742C32.3982 44.9539 32.5187 45.2089 32.569 45.4818C32.6192 45.7546 32.5973 46.0358 32.5055 46.2976C32.4137 46.5594 32.2551 46.7927 32.0455 46.9744C31.8359 47.1561 31.5824 47.2799 31.3102 47.3336C31.0381 47.3872 30.7566 47.3689 30.4936 47.2805C30.2307 47.192 29.9954 47.0364 29.8111 46.8291C29.6222 46.6166 29.4935 46.3575 29.4385 46.0786C29.3835 45.7997 29.4041 45.5111 29.4982 45.2429C29.5923 44.9746 29.7564 44.7364 29.9736 44.553C30.1908 44.3695 30.4531 44.2475 30.7333 44.1996Z" fill="white"/>
<path d="M28.3549 46.8205C28.6535 46.7459 28.9664 46.7512 29.2623 46.8361C29.5581 46.9209 29.8264 47.0822 30.04 47.3038C30.2536 47.5253 30.4051 47.7992 30.4791 48.098C30.5531 48.3967 30.5471 48.7097 30.4616 49.0053C30.3761 49.301 30.2142 49.5689 29.9922 49.782C29.7702 49.9952 29.496 50.146 29.1971 50.2194C28.8982 50.2928 28.5852 50.2861 28.2898 50.1999C27.9943 50.1138 27.7267 49.9513 27.5141 49.7289C27.3052 49.5061 27.1578 49.2329 27.0865 48.936C27.0151 48.6391 27.0221 48.3288 27.1069 48.0355C27.1918 47.7421 27.3514 47.4759 27.5702 47.2629C27.789 47.0499 28.0594 46.8974 28.3549 46.8205Z" fill="white"/>
</svg>
