<?xml version="1.0" encoding="UTF-8"?>
<svg xmlns="http://www.w3.org/2000/svg" width="17" height="17" viewBox="0 0 17 17" fill="none">
  <path d="M9.0625 1.3125V7.5625H15.3125C15.8203 7.5625 16.25 7.99219 16.25 8.5C16.25 9.04688 15.8203 9.4375 15.3125 9.4375H9.0625V15.6875C9.0625 16.2344 8.63281 16.625 8.125 16.625C7.57812 16.625 7.1875 16.2344 7.1875 15.6875V9.4375H0.9375C0.390625 9.4375 0 9.04688 0 8.5C0 7.99219 0.390625 7.5625 0.9375 7.5625H7.1875V1.3125C7.1875 0.804688 7.57812 0.375 8.125 0.375C8.63281 0.375 9.0625 0.804688 9.0625 1.3125Z" fill="#191919"></path>
</svg>
