<?xml version="1.0" encoding="UTF-8"?>
<svg xmlns="http://www.w3.org/2000/svg" width="61" height="50" viewBox="0 0 61 50" fill="none">
  <path d="M48.4065 49.9634C43.2903 49.9634 39.4204 47.8893 36.7968 43.7412C34.5667 40.2412 33.4516 35.9634 33.4516 30.9078C33.4516 24.4263 35.0914 18.593 38.371 13.4078C41.7817 8.22264 46.8979 4.0745 53.7194 0.963379L55.4903 4.46338C51.4237 6.14857 47.8817 8.80597 44.8645 12.4356C41.9785 16.0652 40.5355 19.7597 40.5355 23.5189C40.5355 25.0745 40.7323 26.4356 41.1258 27.6023C43.2247 25.9171 45.6516 25.0745 48.4065 25.0745C51.9484 25.0745 54.9 26.2412 57.2613 28.5745C59.7538 30.7782 61 33.7597 61 37.5189C61 41.0189 59.7538 44.0004 57.2613 46.4634C54.9 48.7967 51.9484 49.9634 48.4065 49.9634ZM14.9548 49.9634C9.83871 49.9634 5.96882 47.8893 3.34516 43.7412C1.11505 40.2412 0 35.9634 0 30.9078C0 24.4263 1.63979 18.593 4.91935 13.4078C8.33011 8.22264 13.4462 4.0745 20.2677 0.963379L22.0387 4.46338C17.972 6.14857 14.4301 8.80597 11.4129 12.4356C8.52688 16.0652 7.08387 19.7597 7.08387 23.5189C7.08387 25.0745 7.28065 26.4356 7.67419 27.6023C9.77312 25.9171 12.2 25.0745 14.9548 25.0745C18.4968 25.0745 21.4484 26.2412 23.8097 28.5745C26.3022 30.7782 27.5484 33.7597 27.5484 37.5189C27.5484 41.0189 26.3022 44.0004 23.8097 46.4634C21.4484 48.7967 18.4968 49.9634 14.9548 49.9634Z" fill="#ECE5DF" fill-opacity="0.75"></path>
</svg>
