<svg width="20" height="21" viewBox="0 0 20 21" fill="none" xmlns="http://www.w3.org/2000/svg">
<path d="M9.49219 1.98438L2.57812 4.91406C2.14844 5.07031 1.83594 5.5 1.875 5.96875C1.875 9.64062 3.39844 16.125 9.49219 19.0547C9.80469 19.2109 10.1562 19.2109 10.4688 19.0547C16.5625 16.125 18.0859 9.64062 18.125 5.96875C18.125 5.5 17.8125 5.10938 17.3828 4.91406L10.4688 1.98438C10.1562 1.82812 9.80469 1.82812 9.49219 1.98438ZM10.9766 0.8125L17.8516 3.74219C18.7109 4.13281 19.375 4.95312 19.375 5.96875C19.3359 9.875 17.7344 16.9453 11.0156 20.1875C10.3516 20.5 9.60938 20.5 8.94531 20.1875C2.22656 16.9453 0.625 9.875 0.625 5.96875C0.585938 4.95312 1.25 4.13281 2.10938 3.74219L9.02344 0.8125C9.64844 0.539062 10.3516 0.539062 10.9766 0.8125ZM14.1797 8.46875L9.17969 13.4688C8.94531 13.7031 8.51562 13.7031 8.28125 13.4688L5.78125 10.9688C5.54688 10.7344 5.54688 10.3047 5.78125 10.0703C6.01562 9.83594 6.44531 9.83594 6.67969 10.0703L8.75 12.1406L13.2812 7.57031C13.5156 7.33594 13.9453 7.33594 14.1797 7.57031C14.4141 7.80469 14.4141 8.23438 14.1797 8.46875Z" fill="#191919"/>
</svg>
