<svg width="25" height="21" viewBox="0 0 25 21" fill="none" xmlns="http://www.w3.org/2000/svg">
<path d="M3.75 3.625C3.75 4.32812 4.10156 4.91406 4.6875 5.26562C5.23438 5.61719 5.97656 5.61719 6.5625 5.26562C7.10938 4.91406 7.5 4.32812 7.5 3.625C7.5 2.96094 7.10938 2.375 6.5625 2.02344C5.97656 1.67188 5.23438 1.67188 4.6875 2.02344C4.10156 2.375 3.75 2.96094 3.75 3.625ZM8.75 3.625C8.75 4.75781 8.125 5.77344 7.1875 6.35938C6.21094 6.90625 5 6.90625 4.0625 6.35938C3.08594 5.77344 2.5 4.75781 2.5 3.625C2.5 2.53125 3.08594 1.51562 4.0625 0.929688C5 0.382812 6.21094 0.382812 7.1875 0.929688C8.125 1.51562 8.75 2.53125 8.75 3.625ZM12.5 6.75C11.6016 6.75 10.7812 7.25781 10.3125 8C9.88281 8.78125 9.88281 9.75781 10.3125 10.5C10.7812 11.2812 11.6016 11.75 12.5 11.75C13.3594 11.75 14.1797 11.2812 14.6484 10.5C15.0781 9.75781 15.0781 8.78125 14.6484 8C14.1797 7.25781 13.3594 6.75 12.5 6.75ZM12.5 13C11.1328 13 9.92188 12.2969 9.21875 11.125C8.55469 9.99219 8.55469 8.54688 9.21875 7.375C9.92188 6.24219 11.1328 5.5 12.5 5.5C13.8281 5.5 15.0391 6.24219 15.7422 7.375C16.4062 8.54688 16.4062 9.99219 15.7422 11.125C15.0391 12.2969 13.8281 13 12.5 13ZM10.1953 15.5C8.08594 15.5 6.32812 17.1797 6.25 19.25H18.7109C18.6328 17.1797 16.875 15.5 14.7656 15.5H10.1953ZM10.1953 14.25H14.7656C17.6562 14.25 20 16.5938 20 19.4844C20 20.0703 19.5312 20.5 18.9453 20.5H6.01562C5.42969 20.5 5 20.0312 5 19.4844C5 16.5938 7.30469 14.25 10.1953 14.25ZM20 1.75C19.2969 1.75 18.7109 2.14062 18.3594 2.6875C18.0078 3.27344 18.0078 4.01562 18.3594 4.5625C18.7109 5.14844 19.2969 5.5 20 5.5C20.6641 5.5 21.25 5.14844 21.6016 4.5625C21.9531 4.01562 21.9531 3.27344 21.6016 2.6875C21.25 2.14062 20.6641 1.75 20 1.75ZM20 6.75C18.8672 6.75 17.8516 6.16406 17.2656 5.1875C16.7188 4.25 16.7188 3.03906 17.2656 2.0625C17.8516 1.125 18.8672 0.5 20 0.5C21.0938 0.5 22.1094 1.125 22.6953 2.0625C23.2422 3.03906 23.2422 4.25 22.6953 5.1875C22.1094 6.16406 21.0938 6.75 20 6.75ZM20.625 9.25H17.5C17.5 8.82031 17.4219 8.42969 17.3438 8H20.625C23.0078 8 25 9.99219 25 12.375C25 12.7266 24.6875 13 24.375 13C24.0234 13 23.75 12.7266 23.75 12.375C23.75 10.6562 22.3438 9.25 20.625 9.25ZM7.5 9.25H4.375C2.61719 9.25 1.25 10.6562 1.25 12.375C1.25 12.7266 0.9375 13 0.625 13C0.273438 13 0 12.7266 0 12.375C0 9.99219 1.95312 8 4.375 8H7.65625C7.53906 8.42969 7.5 8.82031 7.5 9.25Z" fill="#191919"/>
</svg>
