<svg width="20" height="20" viewBox="0 0 20 20" fill="none" xmlns="http://www.w3.org/2000/svg">
<path d="M6.25 2.375V4.25H13.75V2.375C13.75 2.0625 13.4375 1.75 13.125 1.75H6.875C6.52344 1.75 6.25 2.0625 6.25 2.375ZM5 4.25V2.375C5 1.35938 5.82031 0.5 6.875 0.5H13.125C14.1406 0.5 15 1.35938 15 2.375V4.25H17.5C18.8672 4.25 20 5.38281 20 6.75V16.75C20 18.1562 18.8672 19.25 17.5 19.25H2.5C1.09375 19.25 0 18.1562 0 16.75V6.75C0 5.38281 1.09375 4.25 2.5 4.25H5ZM14.375 5.5H5.625H2.5C1.79688 5.5 1.25 6.08594 1.25 6.75V10.5H6.875H8.125H11.875H13.125H18.75V6.75C18.75 6.08594 18.1641 5.5 17.5 5.5H14.375ZM18.75 11.75H13.125V13.625C13.125 14.3281 12.5391 14.875 11.875 14.875H8.125C7.42188 14.875 6.875 14.3281 6.875 13.625V11.75H1.25V16.75C1.25 17.4531 1.79688 18 2.5 18H17.5C18.1641 18 18.75 17.4531 18.75 16.75V11.75ZM8.125 11.75V13.625H11.875V11.75H8.125Z" fill="#191919"/>
</svg>
