<svg width="23" height="19" viewBox="0 0 23 19" fill="none" xmlns="http://www.w3.org/2000/svg">
<path d="M5.3125 2H2.1875C1.64062 2 1.25 2.42969 1.25 2.9375V6.0625C1.25 6.60938 1.64062 7 2.1875 7H5.3125C5.82031 7 6.25 6.60938 6.25 6.0625V5.125V3.875V2.9375C6.25 2.42969 5.82031 2 5.3125 2ZM7.5 6.0625C7.5 6.49219 7.38281 6.88281 7.14844 7.23438L10 10.9844C10.2734 10.8281 10.5859 10.75 10.9375 10.75H14.0625C15.2344 10.75 16.25 11.7656 16.25 12.9375V16.0625C16.25 17.2734 15.2344 18.25 14.0625 18.25H10.9375C9.72656 18.25 8.75 17.2734 8.75 16.0625V12.9375C8.75 12.5469 8.86719 12.1562 9.0625 11.8047L6.25 8.05469C5.9375 8.21094 5.625 8.25 5.3125 8.25H2.1875C0.976562 8.25 0 7.27344 0 6.0625V2.9375C0 1.76562 0.976562 0.75 2.1875 0.75H5.3125C6.48438 0.75 7.5 1.76562 7.5 2.9375V3.875H15V2.9375C15 1.76562 15.9766 0.75 17.1875 0.75H20.3125C21.4844 0.75 22.5 1.76562 22.5 2.9375V6.0625C22.5 7.27344 21.4844 8.25 20.3125 8.25H17.1875C15.9766 8.25 15 7.27344 15 6.0625V5.125H7.5V6.0625ZM16.25 6.0625C16.25 6.60938 16.6406 7 17.1875 7H20.3125C20.8203 7 21.25 6.60938 21.25 6.0625V2.9375C21.25 2.42969 20.8203 2 20.3125 2H17.1875C16.6406 2 16.25 2.42969 16.25 2.9375V3.875V5.125V6.0625ZM14.0625 12H10.9375C10.3906 12 10 12.4297 10 12.9375V16.0625C10 16.6094 10.3906 17 10.9375 17H14.0625C14.5703 17 15 16.6094 15 16.0625V12.9375C15 12.4297 14.5703 12 14.0625 12Z" fill="#191919"/>
</svg>
