<svg width="22" height="21" viewBox="0 0 22 21" fill="none" xmlns="http://www.w3.org/2000/svg">
<path d="M8.82812 7.10156C8.63281 7.49219 8.28125 7.72656 7.89062 7.80469L2.53906 8.58594L6.40625 12.4531C6.71875 12.7266 6.83594 13.1562 6.75781 13.5469L5.85938 19.0156L10.625 16.4375C11.0156 16.2422 11.4453 16.2422 11.8359 16.4375L16.6016 19.0156L15.7031 13.5469C15.625 13.1562 15.7422 12.7266 16.0547 12.4531L19.9219 8.58594L14.5703 7.80469C14.1406 7.72656 13.7891 7.49219 13.6328 7.10156L11.2109 2.17969L8.82812 7.10156ZM16.5625 20.4219H16.6016L11.25 17.5312L5.89844 20.4219C5.58594 20.5781 5.19531 20.5391 4.88281 20.3438C4.60938 20.1094 4.45312 19.7578 4.53125 19.4062L5.54688 13.3516L1.21094 9.05469C0.9375 8.78125 0.859375 8.42969 0.976562 8.07812C1.09375 7.76562 1.36719 7.49219 1.71875 7.45312L7.69531 6.55469L10.3906 1.04688C10.5469 0.734375 10.8594 0.5 11.2109 0.5C11.6016 0.5 11.9141 0.734375 12.0703 1.04688L14.7656 6.55469L20.7422 7.45312C21.0938 7.49219 21.3672 7.76562 21.4844 8.07812C21.6016 8.42969 21.5234 8.78125 21.25 9.05469L16.9141 13.3516L17.9297 19.4062C18.0078 19.7578 17.8516 20.1094 17.5781 20.3438C17.2656 20.5391 16.9141 20.5781 16.5625 20.4219Z" fill="#191919"/>
</svg>
