<?xml version="1.0" encoding="UTF-8"?>
<svg xmlns="http://www.w3.org/2000/svg" width="15" height="20" viewBox="0 0 15 20" fill="none">
  <path d="M10.7031 0.273438C10.8984 0.117188 11.1328 0 11.3672 0C12.0312 0 12.5 0.703125 12.2656 1.32812L9.60938 8.75H13.9453C14.4922 8.75 15 9.25781 15 9.80469C15 10.1172 14.8438 10.4297 14.6094 10.625L4.25781 19.7656C4.0625 19.9219 3.82812 20 3.59375 20C2.92969 20 2.46094 19.3359 2.69531 18.7109L5.35156 11.25H0.976562C0.429688 11.25 0 10.8203 0 10.2734C0 9.96094 0.117188 9.6875 0.3125 9.49219L10.7031 0.273438ZM10.7422 1.91406L1.64062 10H6.25C6.44531 10 6.64062 10.1172 6.75781 10.2734C6.875 10.4688 6.875 10.6641 6.83594 10.8594L4.21875 18.125L13.3984 10H8.75C8.51562 10 8.32031 9.92188 8.20312 9.76562C8.08594 9.57031 8.08594 9.375 8.125 9.17969L10.7422 1.91406Z" fill="#191919"></path>
</svg>
