<?xml version="1.0" encoding="UTF-8"?>
<svg xmlns="http://www.w3.org/2000/svg" width="20" height="21" viewBox="0 0 20 21" fill="none">
  <path d="M18.75 10.4297C18.75 7.30469 17.0703 4.45312 14.375 2.89062C11.6406 1.28906 8.32031 1.28906 5.625 2.89062C2.89062 4.45312 1.25 7.30469 1.25 10.4297C1.25 13.5938 2.89062 16.4453 5.625 18.0078C8.32031 19.6094 11.6406 19.6094 14.375 18.0078C17.0703 16.4453 18.75 13.5938 18.75 10.4297ZM0 10.4297C0 6.875 1.875 3.59375 5 1.79688C8.08594 0 11.875 0 15 1.79688C18.0859 3.59375 20 6.875 20 10.4297C20 14.0234 18.0859 17.3047 15 19.1016C11.875 20.8984 8.08594 20.8984 5 19.1016C1.875 17.3047 0 14.0234 0 10.4297ZM10 15.4297C11.7578 15.4297 13.3984 14.4922 14.2969 12.9297C15.1953 11.4062 15.1953 9.49219 14.2969 7.92969C13.3984 6.40625 11.7578 5.42969 10 5.42969C8.20312 5.42969 6.5625 6.40625 5.66406 7.92969C4.76562 9.49219 4.76562 11.4062 5.66406 12.9297C6.5625 14.4922 8.20312 15.4297 10 15.4297ZM10 4.17969C12.2266 4.17969 14.2578 5.39062 15.3906 7.30469C16.5234 9.25781 16.5234 11.6406 15.3906 13.5547C14.2578 15.5078 12.2266 16.6797 10 16.6797C7.73438 16.6797 5.70312 15.5078 4.57031 13.5547C3.4375 11.6406 3.4375 9.25781 4.57031 7.30469C5.70312 5.39062 7.73438 4.17969 10 4.17969ZM10 11.6797C10.6641 11.6797 11.25 11.1328 11.25 10.4297C11.25 9.76562 10.6641 9.17969 10 9.17969C9.29688 9.17969 8.75 9.76562 8.75 10.4297C8.75 11.1328 9.29688 11.6797 10 11.6797ZM10 7.92969C10.8594 7.92969 11.6797 8.4375 12.1484 9.17969C12.5781 9.96094 12.5781 10.9375 12.1484 11.6797C11.6797 12.4609 10.8594 12.9297 10 12.9297C9.10156 12.9297 8.28125 12.4609 7.8125 11.6797C7.38281 10.9375 7.38281 9.96094 7.8125 9.17969C8.28125 8.4375 9.10156 7.92969 10 7.92969Z" fill="#191919"></path>
</svg>
