<?xml version="1.0" encoding="UTF-8"?>
<svg xmlns="http://www.w3.org/2000/svg" width="20" height="18" viewBox="0 0 20 18" fill="none">
  <path d="M7.46094 0H12.5C13.3203 0 14.0234 0.546875 14.2969 1.28906L14.6875 2.5H17.5C18.8672 2.5 20 3.63281 20 5V15C20 16.4062 18.8672 17.5 17.5 17.5H2.5C1.09375 17.5 0 16.4062 0 15V5C0 3.63281 1.09375 2.5 2.5 2.5H5.27344L5.66406 1.28906C5.9375 0.546875 6.64062 0 7.46094 0ZM6.83594 1.67969L6.28906 3.35938C6.21094 3.59375 5.97656 3.75 5.70312 3.75H2.5C1.79688 3.75 1.25 4.33594 1.25 5V15C1.25 15.7031 1.79688 16.25 2.5 16.25H17.5C18.1641 16.25 18.75 15.7031 18.75 15V5C18.75 4.33594 18.1641 3.75 17.5 3.75H14.2578C13.9844 3.75 13.75 3.59375 13.6719 3.32031L13.125 1.67969C13.0469 1.44531 12.7734 1.25 12.5391 1.25H7.46094C7.1875 1.25 6.95312 1.44531 6.83594 1.67969ZM10 14.375C8.39844 14.375 6.99219 13.5547 6.21094 12.1875C5.39062 10.8594 5.39062 9.17969 6.21094 7.8125C6.99219 6.48438 8.39844 5.625 10 5.625C11.5625 5.625 12.9688 6.48438 13.75 7.8125C14.5703 9.17969 14.5703 10.8594 13.75 12.1875C12.9688 13.5547 11.5625 14.375 10 14.375ZM6.875 10C6.875 11.1328 7.46094 12.1484 8.4375 12.7344C9.375 13.2812 10.5859 13.2812 11.5625 12.7344C12.5 12.1484 13.125 11.1328 13.125 10C13.125 8.90625 12.5 7.89062 11.5625 7.30469C10.5859 6.75781 9.375 6.75781 8.4375 7.30469C7.46094 7.89062 6.875 8.90625 6.875 10Z" fill="#191919"></path>
</svg>
