<?xml version="1.0" encoding="UTF-8"?>
<svg xmlns="http://www.w3.org/2000/svg" width="21" height="21" viewBox="0 0 21 21" fill="none">
  <path d="M6.71875 4.29688C6.44531 4.45312 6.09375 4.49219 5.78125 4.41406L3.86719 3.86719L4.41406 5.78125C4.49219 6.09375 4.45312 6.44531 4.29688 6.71875C4.10156 7.03125 3.82812 7.22656 3.51562 7.30469L1.60156 7.8125L3.00781 9.17969C3.28125 9.41406 3.39844 9.72656 3.39844 10.0391C3.39844 10.3906 3.28125 10.7031 3.00781 10.9375L1.60156 12.3047L3.51562 12.8125C3.82812 12.8906 4.14062 13.0859 4.29688 13.3984C4.45312 13.6719 4.49219 14.0234 4.41406 14.3359L3.86719 16.25L5.78125 15.7031C6.09375 15.625 6.44531 15.6641 6.71875 15.8203C7.03125 15.9766 7.22656 16.2891 7.30469 16.6016L7.8125 18.5156L9.17969 17.1094C9.41406 16.8359 9.72656 16.7188 10.0781 16.7188C10.3906 16.7188 10.7422 16.8359 10.9766 17.1094L12.3438 18.5156L12.8125 16.6016C12.8906 16.2891 13.0859 15.9766 13.3984 15.8203C13.6719 15.6641 14.0234 15.625 14.375 15.7031L16.25 16.25L15.7031 14.3359C15.625 14.0234 15.6641 13.6719 15.8203 13.3984C16.0156 13.0859 16.2891 12.8906 16.6016 12.8125L18.5156 12.3047L17.1094 10.9375C16.8359 10.7031 16.7188 10.3906 16.7188 10.0391C16.7188 9.72656 16.8359 9.375 17.1094 9.14062L18.5156 7.77344L16.6016 7.30469C16.2891 7.22656 16.0156 7.03125 15.8203 6.71875C15.6641 6.44531 15.625 6.09375 15.7031 5.74219L16.25 3.86719L14.3359 4.41406C14.0234 4.49219 13.6719 4.45312 13.3984 4.29688C13.0859 4.10156 12.8906 3.82812 12.8125 3.51562L12.3047 1.60156L10.9375 3.00781C10.7031 3.28125 10.3906 3.39844 10.0391 3.39844C9.72656 3.39844 9.41406 3.28125 9.17969 3.00781L7.8125 1.60156L7.30469 3.51562C7.22656 3.82812 7.03125 4.10156 6.71875 4.29688ZM1.99219 6.40625L3.20312 6.09375L2.85156 4.88281L2.53906 3.67188C2.42188 3.35938 2.53906 3.00781 2.77344 2.77344C3.00781 2.53906 3.35938 2.42188 3.67188 2.53906L4.88281 2.85156L6.09375 3.20312L6.40625 1.99219L6.71875 0.78125C6.79688 0.429688 7.07031 0.15625 7.38281 0.078125C7.73438 0 8.08594 0.078125 8.32031 0.351562L9.17969 1.25L10.0781 2.14844L10.9375 1.25L11.8359 0.351562C12.0703 0.078125 12.3828 0 12.7344 0.078125C13.0469 0.15625 13.3203 0.429688 13.3984 0.742188L13.7109 1.99219L14.0234 3.20312L15.2344 2.85156L16.4453 2.5C16.7578 2.42188 17.1094 2.5 17.3438 2.77344C17.5781 3.00781 17.6953 3.35938 17.5781 3.67188L17.2656 4.88281L16.9141 6.09375L18.125 6.40625L19.3359 6.71875C19.6875 6.79688 19.9219 7.07031 20.0391 7.38281C20.1172 7.69531 20 8.04688 19.7656 8.28125L18.8672 9.17969L17.9688 10.0391L18.8672 10.9375L19.7656 11.7969C20.0391 12.0312 20.1172 12.3828 20.0391 12.7344C19.9609 13.0469 19.6875 13.3203 19.375 13.3984L18.125 13.7109L16.9141 14.0234L17.2656 15.1953L17.6172 16.4453C17.6953 16.7578 17.6172 17.1094 17.3438 17.3438C17.1094 17.5781 16.7578 17.6953 16.4453 17.5781L15.2344 17.2266L14.0234 16.9141L13.7109 18.125L13.3984 19.3359C13.3203 19.6875 13.0469 19.9219 12.7344 20.0391C12.4219 20.1172 12.0703 20 11.8359 19.7656L10.9375 18.8672L10.0781 17.9688L9.17969 18.8672L8.32031 19.7656C8.08594 20.0391 7.73438 20.1172 7.38281 20.0391C7.07031 19.9219 6.79688 19.6875 6.71875 19.3359L6.40625 18.125L6.09375 16.9141L4.88281 17.2656L3.67188 17.5781C3.35938 17.6953 3.00781 17.5781 2.77344 17.3438C2.53906 17.1094 2.42188 16.7578 2.53906 16.4453L2.85156 15.2344L3.20312 14.0234L1.99219 13.7109L0.78125 13.3984C0.429688 13.3203 0.195312 13.0469 0.078125 12.7344C0 12.3828 0.117188 12.0312 0.351562 11.7969L1.25 10.9375L2.14844 10.0391L1.25 9.17969L0.351562 8.28125C0.117188 8.04688 0 7.73438 0.078125 7.38281C0.195312 7.07031 0.429688 6.79688 0.78125 6.71875L1.99219 6.40625Z" fill="#191919"></path>
</svg>
