<?xml version="1.0" encoding="UTF-8"?>
<svg xmlns="http://www.w3.org/2000/svg" width="21" height="20" viewBox="0 0 21 20" fill="none">
  <path d="M10.4688 1.25C7.30469 1.25 4.45312 2.92969 2.89062 5.625C1.28906 8.35938 1.28906 11.6797 2.89062 14.375C4.45312 17.1094 7.30469 18.75 10.4688 18.75C13.5938 18.75 16.4453 17.1094 18.0078 14.375C19.6094 11.6797 19.6094 8.35938 18.0078 5.625C16.4453 2.92969 13.5938 1.25 10.4688 1.25ZM10.4688 20C6.875 20 3.59375 18.125 1.79688 15C0 11.9141 0 8.125 1.79688 5C3.59375 1.91406 6.875 0 10.4688 0C14.0234 0 17.3047 1.91406 19.1016 5C20.8984 8.125 20.8984 11.9141 19.1016 15C17.3047 18.125 14.0234 20 10.4688 20ZM8.59375 13.75H9.84375V10H8.90625C8.55469 10 8.28125 9.72656 8.28125 9.375C8.28125 9.0625 8.55469 8.75 8.90625 8.75H10.4688C10.7812 8.75 11.0938 9.0625 11.0938 9.375V13.75H12.3438C12.6562 13.75 12.9688 14.0625 12.9688 14.375C12.9688 14.7266 12.6562 15 12.3438 15H8.59375C8.24219 15 7.96875 14.7266 7.96875 14.375C7.96875 14.0625 8.24219 13.75 8.59375 13.75ZM10.4688 7.1875C9.92188 7.1875 9.53125 6.79688 9.53125 6.25C9.53125 5.74219 9.92188 5.3125 10.4688 5.3125C10.9766 5.3125 11.4062 5.74219 11.4062 6.25C11.4062 6.79688 10.9766 7.1875 10.4688 7.1875Z" fill="#191919"></path>
</svg>
