<?xml version="1.0" encoding="UTF-8"?>
<svg xmlns="http://www.w3.org/2000/svg" width="23" height="18" viewBox="0 0 23 18" fill="none">
  <path d="M2.5 1.25C1.79688 1.25 1.25 1.83594 1.25 2.5V3.75H21.25V2.5C21.25 1.83594 20.6641 1.25 20 1.25H2.5ZM1.25 5V7.5H21.25V5H1.25ZM1.25 8.75V15C1.25 15.7031 1.79688 16.25 2.5 16.25H20C20.6641 16.25 21.25 15.7031 21.25 15V8.75H1.25ZM0 2.5C0 1.13281 1.09375 0 2.5 0H20C21.3672 0 22.5 1.13281 22.5 2.5V15C22.5 16.4062 21.3672 17.5 20 17.5H2.5C1.09375 17.5 0 16.4062 0 15V2.5ZM3.75 13.125C3.75 12.8125 4.02344 12.5 4.375 12.5H6.875C7.1875 12.5 7.5 12.8125 7.5 13.125C7.5 13.4766 7.1875 13.75 6.875 13.75H4.375C4.02344 13.75 3.75 13.4766 3.75 13.125ZM8.75 13.125C8.75 12.8125 9.02344 12.5 9.375 12.5H14.375C14.6875 12.5 15 12.8125 15 13.125C15 13.4766 14.6875 13.75 14.375 13.75H9.375C9.02344 13.75 8.75 13.4766 8.75 13.125Z" fill="#191919"></path>
</svg>
