<?xml version="1.0" encoding="UTF-8"?>
<svg xmlns="http://www.w3.org/2000/svg" width="21" height="20" viewBox="0 0 21 20" fill="none">
  <path d="M10.4688 1.25C7.30469 1.25 4.45312 2.92969 2.89062 5.625C1.28906 8.35938 1.28906 11.6797 2.89062 14.375C4.45312 17.1094 7.30469 18.75 10.4688 18.75C13.5938 18.75 16.4453 17.1094 18.0078 14.375C19.6094 11.6797 19.6094 8.35938 18.0078 5.625C16.4453 2.92969 13.5938 1.25 10.4688 1.25ZM10.4688 20C6.875 20 3.59375 18.125 1.79688 15C0 11.9141 0 8.125 1.79688 5C3.59375 1.91406 6.875 0 10.4688 0C14.0234 0 17.3047 1.91406 19.1016 5C20.8984 8.125 20.8984 11.9141 19.1016 15C17.3047 18.125 14.0234 20 10.4688 20ZM11.4062 3.75C11.4062 4.29688 10.9766 4.6875 10.4688 4.6875C9.92188 4.6875 9.53125 4.29688 9.53125 3.75C9.53125 3.24219 9.92188 2.8125 10.4688 2.8125C10.9766 2.8125 11.4062 3.24219 11.4062 3.75ZM9.21875 13.75C9.21875 14.4531 9.76562 15 10.4688 15C11.1328 15 11.7188 14.4531 11.7188 13.75C11.7188 13.0859 11.1328 12.5 10.4688 12.5C9.76562 12.5 9.21875 13.0859 9.21875 13.75ZM12.9688 13.75C12.9688 15.1562 11.8359 16.25 10.4688 16.25C9.0625 16.25 7.96875 15.1562 7.96875 13.75C7.96875 12.3828 9.0625 11.25 10.4688 11.25C10.6641 11.25 10.8594 11.2891 11.0547 11.3281L14.2578 5.35156C14.4531 5.03906 14.8047 4.92188 15.1172 5.07812C15.4297 5.27344 15.5469 5.625 15.3906 5.9375L12.1484 11.9141C12.6562 12.3828 12.9688 13.0469 12.9688 13.75ZM7.03125 5.625C7.03125 6.17188 6.60156 6.5625 6.09375 6.5625C5.54688 6.5625 5.15625 6.17188 5.15625 5.625C5.15625 5.11719 5.54688 4.6875 6.09375 4.6875C6.60156 4.6875 7.03125 5.11719 7.03125 5.625ZM4.21875 10.9375C3.67188 10.9375 3.28125 10.5469 3.28125 10C3.28125 9.49219 3.67188 9.0625 4.21875 9.0625C4.72656 9.0625 5.15625 9.49219 5.15625 10C5.15625 10.5469 4.72656 10.9375 4.21875 10.9375ZM17.6562 10C17.6562 10.5469 17.2266 10.9375 16.7188 10.9375C16.1719 10.9375 15.7812 10.5469 15.7812 10C15.7812 9.49219 16.1719 9.0625 16.7188 9.0625C17.2266 9.0625 17.6562 9.49219 17.6562 10Z" fill="#191919"></path>
</svg>
