<?xml version="1.0" encoding="UTF-8"?>
<svg xmlns="http://www.w3.org/2000/svg" width="18" height="20" viewBox="0 0 18 20" fill="none">
  <path d="M5.27344 2.1875V13.0469C5.27344 13.3203 5.07812 13.5547 4.84375 13.6328C4.60938 13.7109 4.33594 13.6328 4.14062 13.4375L3.16406 12.2266C2.85156 11.8359 2.26562 11.7578 1.83594 12.1094C1.44531 12.4219 1.40625 13.0078 1.71875 13.4375L4.64844 17.0312C5.54688 18.125 6.875 18.75 8.28125 18.75H10.2734H10.8984H13.3984C15.1172 18.75 16.5234 17.3828 16.5234 15.625V13.125V12.5V11.25C16.5234 10.5859 15.9375 10 15.2734 10C14.9219 10 14.6484 10.1562 14.4141 10.3516C14.2578 10.5078 13.9844 10.5469 13.75 10.4688C13.5547 10.3516 13.3984 10.1562 13.3594 9.92188C13.3203 9.25781 12.7734 8.75 12.1484 8.75C11.7969 8.75 11.5234 8.90625 11.2891 9.10156C11.1328 9.25781 10.8594 9.29688 10.625 9.21875C10.4297 9.10156 10.2734 8.90625 10.2344 8.67188C10.1953 8.00781 9.64844 7.5 9.02344 7.5C8.67188 7.5 8.39844 7.61719 8.16406 7.85156C8.00781 8.00781 7.73438 8.04688 7.5 7.92969C7.26562 7.85156 7.14844 7.61719 7.14844 7.38281V2.1875C7.14844 1.67969 6.71875 1.25 6.21094 1.25C5.66406 1.25 5.27344 1.67969 5.27344 2.1875ZM6.21094 0C7.38281 0 8.39844 1.01562 8.39844 2.1875V6.32812C8.59375 6.28906 8.78906 6.25 9.02344 6.25C10 6.25 10.8594 6.83594 11.25 7.65625C11.5234 7.57812 11.8359 7.5 12.1484 7.5C13.125 7.5 13.9844 8.08594 14.375 8.90625C14.6484 8.82812 14.9609 8.75 15.2734 8.75C16.6406 8.75 17.7734 9.88281 17.7734 11.25V12.5V13.125V15.625C17.7734 18.0469 15.7812 20 13.3984 20H10.8984H10.2734H8.28125C6.48438 20 4.80469 19.2188 3.67188 17.8125L0.742188 14.2188C0 13.2812 0.117188 11.875 1.05469 11.1328C1.95312 10.4297 3.24219 10.5078 4.02344 11.2891V2.1875C4.02344 1.01562 5 0 6.21094 0ZM9.02344 12.5V16.25C9.02344 16.6016 8.71094 16.875 8.39844 16.875C8.04688 16.875 7.77344 16.6016 7.77344 16.25V12.5C7.77344 12.1875 8.04688 11.875 8.39844 11.875C8.71094 11.875 9.02344 12.1875 9.02344 12.5ZM11.5234 12.5V16.25C11.5234 16.6016 11.2109 16.875 10.8984 16.875C10.5469 16.875 10.2734 16.6016 10.2734 16.25V12.5C10.2734 12.1875 10.5469 11.875 10.8984 11.875C11.2109 11.875 11.5234 12.1875 11.5234 12.5ZM14.0234 12.5V16.25C14.0234 16.6016 13.7109 16.875 13.3984 16.875C13.0469 16.875 12.7734 16.6016 12.7734 16.25V12.5C12.7734 12.1875 13.0469 11.875 13.3984 11.875C13.7109 11.875 14.0234 12.1875 14.0234 12.5Z" fill="#191919"></path>
</svg>
