<?xml version="1.0" encoding="UTF-8"?>
<svg xmlns="http://www.w3.org/2000/svg" width="23" height="18" viewBox="0 0 23 18" fill="none">
  <path d="M6.25 1.25C5.54688 1.25 5 1.83594 5 2.5V9.14062L7.22656 6.875C7.69531 6.40625 8.51562 6.40625 8.98438 6.875L11.875 9.76562L17.2266 4.375C17.6953 3.90625 18.5156 3.90625 18.9844 4.375L21.25 6.64062V2.5C21.25 1.83594 20.6641 1.25 20 1.25H6.25ZM22.5 2.5V8.125V11.25C22.5 12.6562 21.3672 13.75 20 13.75H9.375H6.25C4.84375 13.75 3.75 12.6562 3.75 11.25V10.625V2.5C3.75 1.13281 4.84375 0 6.25 0H20C21.3672 0 22.5 1.13281 22.5 2.5ZM18.125 5.27344L12.3047 11.0938L10.8594 12.5H20C20.6641 12.5 21.25 11.9531 21.25 11.25V8.39844L18.125 5.27344ZM10.9766 10.625L8.125 7.77344L5 10.8984V11.25C5 11.9531 5.54688 12.5 6.25 12.5H9.10156L10.9766 10.625ZM1.25 3.125V12.5C1.25 14.5703 2.92969 16.25 5 16.25H18.125C18.4375 16.25 18.75 16.5625 18.75 16.875C18.75 17.2266 18.4375 17.5 18.125 17.5H5C2.22656 17.5 0 15.2734 0 12.5V3.125C0 2.8125 0.273438 2.5 0.625 2.5C0.9375 2.5 1.25 2.8125 1.25 3.125ZM10.3125 5C9.76562 5 9.375 4.60938 9.375 4.0625C9.375 3.55469 9.76562 3.125 10.3125 3.125C10.8203 3.125 11.25 3.55469 11.25 4.0625C11.25 4.60938 10.8203 5 10.3125 5Z" fill="#191919"></path>
</svg>
