<?xml version="1.0" encoding="UTF-8"?>
<svg xmlns="http://www.w3.org/2000/svg" width="21" height="17" viewBox="0 0 21 17" fill="none">
  <path d="M6.17188 1.09375L3.04688 4.84375C2.92969 4.96094 2.77344 5.03906 2.57812 5.03906C2.42188 5.07812 2.22656 5 2.10938 4.88281L0.234375 3.00781C0 2.77344 0 2.34375 0.234375 2.10938C0.46875 1.875 0.898438 1.875 1.13281 2.10938L2.5 3.51562L5.19531 0.273438C5.42969 0 5.82031 0 6.09375 0.195312C6.36719 0.429688 6.40625 0.820312 6.17188 1.09375ZM6.17188 7.34375L3.04688 11.0938C2.92969 11.2109 2.77344 11.2891 2.57812 11.2891C2.42188 11.3281 2.22656 11.25 2.10938 11.1328L0.234375 9.25781C0 9.02344 0 8.59375 0.234375 8.35938C0.46875 8.125 0.898438 8.125 1.13281 8.35938L2.5 9.76562L5.19531 6.52344C5.42969 6.25 5.82031 6.25 6.09375 6.44531C6.36719 6.67969 6.40625 7.07031 6.17188 7.34375ZM7.57812 2.53906C7.57812 2.22656 7.85156 1.91406 8.20312 1.91406H19.4531C19.7656 1.91406 20.0781 2.22656 20.0781 2.53906C20.0781 2.89062 19.7656 3.16406 19.4531 3.16406H8.20312C7.85156 3.16406 7.57812 2.89062 7.57812 2.53906ZM7.57812 8.78906C7.57812 8.47656 7.85156 8.16406 8.20312 8.16406H19.4531C19.7656 8.16406 20.0781 8.47656 20.0781 8.78906C20.0781 9.14062 19.7656 9.41406 19.4531 9.41406H8.20312C7.85156 9.41406 7.57812 9.14062 7.57812 8.78906ZM6.32812 15.0391C6.32812 14.7266 6.60156 14.4141 6.95312 14.4141H19.4531C19.7656 14.4141 20.0781 14.7266 20.0781 15.0391C20.0781 15.3906 19.7656 15.6641 19.4531 15.6641H6.95312C6.60156 15.6641 6.32812 15.3906 6.32812 15.0391ZM3.82812 15.0391C3.82812 15.7422 3.24219 16.2891 2.57812 16.2891C1.875 16.2891 1.32812 15.7422 1.32812 15.0391C1.32812 14.375 1.875 13.7891 2.57812 13.7891C3.24219 13.7891 3.82812 14.375 3.82812 15.0391Z" fill="#191919"></path>
</svg>
