<?xml version="1.0" encoding="UTF-8"?>
<svg xmlns="http://www.w3.org/2000/svg" width="20" height="20" viewBox="0 0 20 20" fill="none">
  <path d="M10 0C10.3125 0 10.625 0.3125 10.625 0.625V2.53906C14.2578 2.85156 17.1484 5.74219 17.4609 9.375H19.375C19.6875 9.375 20 9.6875 20 10C20 10.3516 19.6875 10.625 19.375 10.625H17.4609C17.1484 14.2969 14.2578 17.1875 10.625 17.5V19.375C10.625 19.7266 10.3125 20 10 20C9.64844 20 9.375 19.7266 9.375 19.375V17.5C5.70312 17.1875 2.8125 14.2969 2.5 10.625H0.625C0.273438 10.625 0 10.3516 0 10C0 9.6875 0.273438 9.375 0.625 9.375H2.5C2.8125 5.74219 5.70312 2.85156 9.375 2.53906V0.625C9.375 0.3125 9.64844 0 10 0ZM3.75 10C3.75 12.2656 4.92188 14.2969 6.875 15.4297C8.78906 16.5625 11.1719 16.5625 13.125 15.4297C15.0391 14.2969 16.25 12.2656 16.25 10C16.25 7.77344 15.0391 5.74219 13.125 4.60938C11.1719 3.47656 8.78906 3.47656 6.875 4.60938C4.92188 5.74219 3.75 7.77344 3.75 10ZM12.5 10C12.5 9.14062 11.9922 8.32031 11.25 7.85156C10.4688 7.42188 9.49219 7.42188 8.75 7.85156C7.96875 8.32031 7.5 9.14062 7.5 10C7.5 10.8984 7.96875 11.7188 8.75 12.1875C9.49219 12.6172 10.4688 12.6172 11.25 12.1875C11.9922 11.7188 12.5 10.8984 12.5 10ZM6.25 10C6.25 8.67188 6.95312 7.46094 8.125 6.75781C9.25781 6.09375 10.7031 6.09375 11.875 6.75781C13.0078 7.46094 13.75 8.67188 13.75 10C13.75 11.3672 13.0078 12.5781 11.875 13.2812C10.7031 13.9453 9.25781 13.9453 8.125 13.2812C6.95312 12.5781 6.25 11.3672 6.25 10Z" fill="#191919"></path>
</svg>
