<?xml version="1.0" encoding="UTF-8"?>
<svg xmlns="http://www.w3.org/2000/svg" width="21" height="17" viewBox="0 0 21 17" fill="none">
  <path d="M1.125 5.90625C2.35547 5.90625 3.375 4.92188 3.375 3.65625C2.70703 3.62109 2.03906 3.51562 1.40625 3.30469C1.33594 3.30469 1.23047 3.30469 1.16016 3.375C1.125 3.375 1.125 3.41016 1.125 3.41016V5.90625ZM1.125 12.6562V14.3086C1.125 14.5547 1.23047 14.6602 1.33594 14.6953C2.00391 14.9414 2.67188 15.082 3.375 15.1523V14.9062C3.375 13.6758 2.35547 12.6562 1.125 12.6562ZM1.125 11.5312C2.98828 11.5312 4.5 13.043 4.5 14.9062V15.1875C6.04688 15.1523 7.69922 14.8008 9.45703 14.3438C9.59766 14.3086 9.73828 14.2734 9.91406 14.2383C11.7422 13.7461 13.7109 13.2539 15.75 13.2188C15.75 11.3555 17.2617 9.84375 19.125 9.84375V5.34375C17.2617 5.34375 15.75 3.83203 15.75 1.96875V1.6875C14.168 1.72266 12.5156 2.10938 10.7578 2.56641C10.6172 2.60156 10.4766 2.63672 10.3008 2.67188C8.47266 3.16406 6.50391 3.65625 4.5 3.69141C4.46484 5.55469 2.95312 7.03125 1.125 7.03125V11.5312ZM18.8086 13.5703C18.9141 13.6055 18.9844 13.6055 19.0547 13.5352C19.0898 13.5352 19.0898 13.5 19.125 13.5V10.9688C17.8594 10.9688 16.875 11.9883 16.875 13.2188V13.2539C17.5078 13.2891 18.1758 13.3945 18.8086 13.5703ZM16.875 1.96875C16.875 3.23438 17.8594 4.21875 19.125 4.21875V2.60156C19.125 2.35547 18.9844 2.25 18.8789 2.21484C18.2109 1.96875 17.543 1.79297 16.875 1.75781V1.96875ZM0 14.3086V3.41016C0 2.56641 0.878906 2.00391 1.6875 2.25C4.5 2.98828 7.3125 2.28516 10.125 1.58203C13.1836 0.773438 16.2422 0 19.3008 1.16016C19.8633 1.37109 20.25 1.96875 20.25 2.60156V13.5C20.25 14.3438 19.3359 14.9062 18.5273 14.6602C15.7148 13.9219 12.9023 14.625 10.125 15.3281C7.06641 16.1016 4.00781 16.9102 0.949219 15.75C0.351562 15.5391 0 14.9414 0 14.3086ZM7.875 8.4375C7.875 10.0898 8.96484 11.25 10.125 11.25C11.25 11.25 12.375 10.0898 12.375 8.4375C12.375 6.78516 11.25 5.625 10.125 5.625C8.96484 5.625 7.875 6.78516 7.875 8.4375ZM10.125 4.5C12.0586 4.5 13.5 6.36328 13.5 8.4375C13.5 10.5117 12.0586 12.375 10.125 12.375C8.15625 12.375 6.75 10.5117 6.75 8.4375C6.75 6.36328 8.15625 4.5 10.125 4.5Z" fill="#191919"></path>
</svg>
