<?xml version="1.0" encoding="UTF-8"?>
<svg xmlns="http://www.w3.org/2000/svg" width="19" height="20" viewBox="0 0 19 20" fill="none">
  <path d="M8.90625 1.44531L1.99219 4.375C1.5625 4.53125 1.25 4.96094 1.28906 5.42969C1.28906 9.10156 2.8125 15.5859 8.90625 18.5156C9.21875 18.6719 9.57031 18.6719 9.88281 18.5156C15.9766 15.5859 17.5 9.10156 17.5391 5.42969C17.5391 4.96094 17.2266 4.57031 16.7969 4.375L9.88281 1.44531C9.57031 1.28906 9.21875 1.28906 8.90625 1.44531ZM10.3906 0.273438L17.2656 3.20312C18.125 3.59375 18.7891 4.41406 18.7891 5.42969C18.75 9.33594 17.1484 16.4062 10.4297 19.6484C9.76562 19.9609 9.02344 19.9609 8.35938 19.6484C1.64062 16.4062 0.0390625 9.33594 0.0390625 5.42969C0 4.41406 0.664062 3.59375 1.52344 3.20312L8.4375 0.273438C9.0625 0 9.76562 0 10.3906 0.273438ZM13.5938 7.92969L8.59375 12.9297C8.35938 13.1641 7.92969 13.1641 7.69531 12.9297L5.19531 10.4297C4.96094 10.1953 4.96094 9.76562 5.19531 9.53125C5.42969 9.29688 5.85938 9.29688 6.09375 9.53125L8.16406 11.6016L12.6953 7.03125C12.9297 6.79688 13.3594 6.79688 13.5938 7.03125C13.8281 7.26562 13.8281 7.69531 13.5938 7.92969Z" fill="#191919"></path>
</svg>
