<svg width="21" height="19" viewBox="0 0 21 19" fill="none" xmlns="http://www.w3.org/2000/svg">
<path d="M19.8047 9.96875L14.8047 14.9688C14.5703 15.2031 14.1406 15.2031 13.9062 14.9688C13.6719 14.7344 13.6719 14.3047 13.9062 14.0703L17.8516 10.125H6.875C6.52344 10.125 6.25 9.85156 6.25 9.5C6.25 9.1875 6.52344 8.875 6.875 8.875H17.8516L13.9062 4.96875C13.6719 4.73438 13.6719 4.30469 13.9062 4.07031C14.1406 3.83594 14.5703 3.83594 14.8047 4.07031L19.8047 9.07031C20.0391 9.30469 20.0391 9.73438 19.8047 9.96875ZM6.875 2H3.125C2.07031 2 1.25 2.85938 1.25 3.875V15.125C1.25 16.1797 2.07031 17 3.125 17H6.875C7.1875 17 7.5 17.3125 7.5 17.625C7.5 17.9766 7.1875 18.25 6.875 18.25H3.125C1.36719 18.25 0 16.8828 0 15.125V3.875C0 2.15625 1.36719 0.75 3.125 0.75H6.875C7.1875 0.75 7.5 1.0625 7.5 1.375C7.5 1.72656 7.1875 2 6.875 2Z" fill="#191919"/>
</svg>
