<svg width="20" height="19" viewBox="0 0 20 19" fill="none" xmlns="http://www.w3.org/2000/svg">
<path d="M1.25 1.375V15.125C1.25 16.1797 2.07031 17 3.125 17H19.375C19.6875 17 20 17.3125 20 17.625C20 17.9766 19.6875 18.25 19.375 18.25H3.125C1.36719 18.25 0 16.8828 0 15.125V1.375C0 1.0625 0.273438 0.75 0.625 0.75C0.9375 0.75 1.25 1.0625 1.25 1.375ZM11.6016 7.89844L8.75 5.04688L5.15625 8.60156C5.03906 8.71875 5 8.875 5 9.03125V13.25H17.5V9.57812C17.5 9.42188 17.4219 9.30469 17.3438 9.1875L14.9219 6.33594L13.3594 7.89844C13.125 8.13281 12.8125 8.25 12.5 8.25C12.1484 8.25 11.8359 8.13281 11.6016 7.89844ZM11.6016 6.14062L12.5 7L13.3594 6.14062L14.0234 5.47656C14.5312 4.96875 15.3906 5.00781 15.8594 5.55469L18.2812 8.36719C18.5547 8.71875 18.75 9.14844 18.75 9.57812V13.25C18.75 13.9531 18.1641 14.5 17.5 14.5H5C4.29688 14.5 3.75 13.9531 3.75 13.25V9.03125C3.75 8.5625 3.94531 8.05469 4.29688 7.70312L7.85156 4.14844C8.32031 3.67969 9.14062 3.67969 9.60938 4.14844L11.6016 6.14062Z" fill="#191919"/>
</svg>
