<svg width="27" height="21" viewBox="0 0 27 21" fill="none" xmlns="http://www.w3.org/2000/svg">
<path d="M2.25 7.375C2.25 8.85938 2.95312 10.0703 4.00781 11.1641C4.16406 11.3594 4.20312 11.6719 4.08594 11.9062C3.65625 12.6875 3.1875 13.5078 2.64062 14.25C3.85156 14.1328 5.10156 13.7031 6.19531 13.2344C6.42969 13.1172 6.66406 13 6.89844 12.8828C7.01562 12.8047 7.17188 12.8047 7.28906 12.8047C7.91406 12.9609 8.5 13 9.125 13C13.1094 13 16 10.3047 16 7.375C16 4.48438 13.1094 1.75 9.125 1.75C5.10156 1.75 2.25 4.48438 2.25 7.375ZM9.125 0.5C13.5781 0.5 17.25 3.58594 17.25 7.41406C17.25 11.2031 13.5781 14.2891 9.125 14.2891C8.46094 14.2891 7.875 14.2109 7.28906 14.0938C7.09375 14.1719 6.89844 14.2891 6.70312 14.3672C5.29688 14.9922 3.61719 15.5 1.9375 15.5C1.54688 15.5 1.19531 15.3047 1.07812 14.9531C0.921875 14.6016 0.960938 14.2109 1.23438 13.9375C1.85938 13.2734 2.32812 12.4922 2.79688 11.6719C1.74219 10.5391 1 9.13281 1 7.375C1 3.58594 4.63281 0.5 9.125 0.5ZM18.4609 6.78906C18.4219 6.35938 18.3438 5.92969 18.2266 5.53906C22.5625 5.69531 26 8.70312 26 12.4141C26 14.1328 25.2188 15.5391 24.2031 16.7109C24.6328 17.5312 25.1406 18.2734 25.7266 18.9375C26 19.2109 26.0391 19.6016 25.9219 19.9531C25.7656 20.3047 25.4141 20.5 25.0625 20.5C23.3828 20.5 21.6641 19.9922 20.2578 19.3672C20.0625 19.25 19.8672 19.1719 19.7109 19.0938C19.0859 19.2109 18.5 19.25 17.875 19.25C14.6328 19.25 11.8984 17.6875 10.5703 15.4219C11 15.3438 11.4297 15.2656 11.8594 15.1484C13.0312 16.8281 15.1797 18 17.875 18C18.4609 18 19.0469 17.9609 19.6719 17.8047C19.7891 17.8047 19.9453 17.8047 20.0625 17.8828C20.2969 18 20.5312 18.1172 20.7656 18.2344C21.8594 18.7031 23.1094 19.1328 24.3594 19.25C23.7734 18.4688 23.3047 17.6875 22.875 16.9062C22.7578 16.6719 22.7969 16.3594 22.9531 16.1641C24.0469 15.0703 24.75 13.8594 24.75 12.375C24.75 9.60156 22.1328 7.02344 18.4609 6.78906Z" fill="#191919"/>
</svg>
