<svg width="18" height="19" viewBox="0 0 18 19" fill="none" xmlns="http://www.w3.org/2000/svg">
<path d="M9.29688 1.14062L16.0156 17H16.875C17.1875 17 17.5 17.3125 17.5 17.625C17.5 17.9766 17.1875 18.25 16.875 18.25H13.75C13.3984 18.25 13.125 17.9766 13.125 17.625C13.125 17.3125 13.3984 17 13.75 17H14.6484L13.0859 13.25H4.375L2.8125 17H3.75C4.0625 17 4.375 17.3125 4.375 17.625C4.375 17.9766 4.0625 18.25 3.75 18.25H0.625C0.273438 18.25 0 17.9766 0 17.625C0 17.3125 0.273438 17 0.625 17H1.44531L8.16406 1.14062C8.24219 0.90625 8.47656 0.75 8.75 0.75C8.98438 0.75 9.21875 0.90625 9.29688 1.14062ZM12.5391 12L8.75 3.01562L4.92188 12H12.5391Z" fill="#191919"/>
</svg>
