<svg width="23" height="19" viewBox="0 0 23 19" fill="none" xmlns="http://www.w3.org/2000/svg">
<path d="M2.5 2C1.79688 2 1.25 2.58594 1.25 3.25H21.25C21.25 2.58594 20.6641 2 20 2H2.5ZM0 3.875V3.25C0 1.88281 1.09375 0.75 2.5 0.75H20C21.3672 0.75 22.5 1.88281 22.5 3.25V3.875V15.75C22.5 17.1562 21.3672 18.25 20 18.25H2.5C1.09375 18.25 0 17.1562 0 15.75V3.875ZM21.25 4.5H1.25V15.75C1.25 16.4531 1.79688 17 2.5 17H20C20.6641 17 21.25 16.4531 21.25 15.75V4.5ZM7.5 9.5C8.16406 9.5 8.75 8.95312 8.75 8.25C8.75 7.58594 8.16406 7 7.5 7C6.79688 7 6.25 7.58594 6.25 8.25C6.25 8.95312 6.79688 9.5 7.5 9.5ZM7.5 5.75C8.35938 5.75 9.17969 6.25781 9.64844 7C10.0781 7.78125 10.0781 8.75781 9.64844 9.5C9.17969 10.2812 8.35938 10.75 7.5 10.75C6.60156 10.75 5.78125 10.2812 5.3125 9.5C4.88281 8.75781 4.88281 7.78125 5.3125 7C5.78125 6.25781 6.60156 5.75 7.5 5.75ZM6.25 13.25C5.19531 13.25 4.375 14.1094 4.375 15.125C4.375 15.4766 4.0625 15.75 3.75 15.75C3.39844 15.75 3.125 15.4766 3.125 15.125C3.125 13.4062 4.49219 12 6.25 12H8.75C10.4688 12 11.875 13.4062 11.875 15.125C11.875 15.4766 11.5625 15.75 11.25 15.75C10.8984 15.75 10.625 15.4766 10.625 15.125C10.625 14.1094 9.76562 13.25 8.75 13.25H6.25ZM13.125 7.625C13.125 7.3125 13.3984 7 13.75 7H18.75C19.0625 7 19.375 7.3125 19.375 7.625C19.375 7.97656 19.0625 8.25 18.75 8.25H13.75C13.3984 8.25 13.125 7.97656 13.125 7.625ZM13.125 10.125C13.125 9.8125 13.3984 9.5 13.75 9.5H18.75C19.0625 9.5 19.375 9.8125 19.375 10.125C19.375 10.4766 19.0625 10.75 18.75 10.75H13.75C13.3984 10.75 13.125 10.4766 13.125 10.125ZM13.125 12.625C13.125 12.3125 13.3984 12 13.75 12H18.75C19.0625 12 19.375 12.3125 19.375 12.625C19.375 12.9766 19.0625 13.25 18.75 13.25H13.75C13.3984 13.25 13.125 12.9766 13.125 12.625Z" fill="#191919"/>
</svg>
