<svg width="20" height="19" viewBox="0 0 20 19" fill="none" xmlns="http://www.w3.org/2000/svg">
<path d="M16.875 0.75C17.1875 0.75 17.5 1.0625 17.5 1.375V3.25H19.375C19.6875 3.25 20 3.5625 20 3.875C20 4.22656 19.6875 4.5 19.375 4.5H17.5V6.375C17.5 6.72656 17.1875 7 16.875 7C16.5234 7 16.25 6.72656 16.25 6.375V4.5H14.375C14.0234 4.5 13.75 4.22656 13.75 3.875C13.75 3.5625 14.0234 3.25 14.375 3.25H16.25V1.375C16.25 1.0625 16.5234 0.75 16.875 0.75ZM16.875 12C17.1875 12 17.5 12.3125 17.5 12.625V14.5H19.375C19.6875 14.5 20 14.8125 20 15.125C20 15.4766 19.6875 15.75 19.375 15.75H17.5V17.625C17.5 17.9766 17.1875 18.25 16.875 18.25C16.5234 18.25 16.25 17.9766 16.25 17.625V15.75H14.375C14.0234 15.75 13.75 15.4766 13.75 15.125C13.75 14.8125 14.0234 14.5 14.375 14.5H16.25V12.625C16.25 12.3125 16.5234 12 16.875 12ZM5.3125 7.97656L2.10938 9.46094L5.3125 10.9453C5.58594 11.0625 5.82031 11.2969 5.9375 11.5703L7.42188 14.7734L8.90625 11.5703C9.02344 11.2969 9.25781 11.0625 9.53125 10.9453L12.7344 9.46094L9.53125 7.97656C9.25781 7.85938 9.02344 7.625 8.90625 7.35156L7.42188 4.14844L5.9375 7.35156C5.82031 7.625 5.58594 7.85938 5.3125 7.97656ZM4.80469 12.0781L0.351562 10.0469C0.117188 9.92969 0 9.69531 0 9.46094C0 9.22656 0.117188 8.99219 0.351562 8.91406L4.80469 6.84375L6.875 2.39062C6.95312 2.15625 7.1875 2 7.42188 2C7.65625 2 7.89062 2.15625 8.00781 2.39062L10.0391 6.84375L14.4922 8.875C14.7266 8.99219 14.8828 9.22656 14.8828 9.46094C14.8828 9.69531 14.7266 9.92969 14.4922 10.0078L10.0391 12.0781L8.00781 16.5312C7.89062 16.7656 7.65625 16.9219 7.42188 16.9219C7.1875 16.9219 6.95312 16.7656 6.875 16.5312L4.80469 12.0781Z" fill="#191919"/>
</svg>
